<svg width="24" height="24" viewBox="0 0 24 24" fill="none" xmlns="http://www.w3.org/2000/svg">
<g clip-path="url(#clip0_161_10283)">
<path d="M20.8359 0.727539H12L3.16406 7.80046H20.8359V0.727539Z" fill="#0F9D58"/>
<path d="M3.16406 0.727539H12V7.80051H3.16406V0.727539Z" fill="#31AA52"/>
<path d="M14.7361 18.9886L17.3533 5.82227L24.0011 7.14367L21.3839 20.3101L14.7361 18.9886Z" fill="#EB4132"/>
<path d="M18.022 3.56592L12.0001 4.76376L2.61841 20.3142L20.6404 16.7294L18.022 3.56592Z" fill="#F8A808"/>
<path d="M0 7.15108L2.61834 20.3146L12 18.4485V4.76416L0 7.15108Z" fill="#FBBD00"/>
<path d="M21.5391 9.44434H12L9.1875 16.3584L12 23.2725H21.5391V9.44434Z" fill="#4175DF"/>
<path d="M2.46094 9.44434H12V23.2725H2.46094V9.44434Z" fill="#4086F4"/>
<path d="M14.8828 12.8428H18.7266V14.249H14.8828V12.8428ZM14.8828 15.6553H18.7266V17.0615H14.8828V15.6553ZM14.8828 18.4678H18.7266V19.874H14.8828V18.4678Z" fill="#E3E7EA"/>
<path d="M12 15.6553H9.375V17.0615H11.9767C11.6666 18.2078 10.618 19.0537 9.375 19.0537C7.88878 19.0537 6.67969 17.8446 6.67969 16.3584C6.67969 14.8722 7.88878 13.6631 9.375 13.6631C10.0105 13.6631 10.6162 13.8842 11.1 14.2882L12 13.2081C11.2637 12.5934 10.342 12.2568 9.375 12.2568C7.11337 12.2568 5.27344 14.0968 5.27344 16.3584C5.27344 18.62 7.11337 20.46 9.375 20.46C10.3727 20.46 11.2882 20.1017 12 19.5074L12.5391 17.0615L12 15.6553Z" fill="white"/>
<path d="M12 15.6553V19.5074C12.9018 18.7544 13.4766 17.6223 13.4766 16.3584V15.6553H12Z" fill="#E3E7EA"/>
</g>
<defs>
<clipPath id="clip0_161_10283">
<rect width="24" height="24" fill="white"/>
</clipPath>
</defs>
</svg>
